<svg id="Capa_1" data-name="Capa 1" xmlns="http://www.w3.org/2000/svg" viewBox="0 0 500 500"><defs><style>.cls-1{fill:#0080ff;}.cls-2{fill:#fff;}</style></defs><title>iconos de links</title><path class="cls-1" d="M447,242.24c0-115.52-93.65-209.18-209.18-209.18S28.64,126.72,28.64,242.24c0,104.41,76.5,191,176.5,206.64V302.71H152V242.24h53.11V196.16c0-52.43,31.23-81.39,79-81.39,22.88,0,46.82,4.09,46.82,4.09v51.48H304.59c-26,0-34.09,16.12-34.09,32.66v39.24h58l-9.28,60.47H270.5V448.88C370.51,433.19,447,346.65,447,242.24Z"/><path class="cls-2" d="M319.24,302.71l9.28-60.47h-58V203c0-16.54,8.11-32.66,34.09-32.66H331V118.86s-23.94-4.09-46.82-4.09c-47.78,0-79,29-79,81.39v46.08H152v60.47h53.11V448.88a211.5,211.5,0,0,0,65.36,0V302.71Z"/></svg>