<svg id="Capa_1" data-name="Capa 1" xmlns="http://www.w3.org/2000/svg" xmlns:xlink="http://www.w3.org/1999/xlink" viewBox="0 0 500 500"><defs><style>.cls-1{fill:url(#linear-gradient);}.cls-2{fill:#fff;}</style><linearGradient id="linear-gradient" x1="76.03" y1="86.51" x2="467.31" y2="416.99" gradientUnits="userSpaceOnUse"><stop offset="0" stop-color="#ffe185"/><stop offset="0.21" stop-color="#ffbb36"/><stop offset="0.38" stop-color="#ff5176"/><stop offset="0.52" stop-color="#f63395"/><stop offset="0.74" stop-color="#a436d2"/><stop offset="1" stop-color="#5f4eed"/></linearGradient></defs><title>iconos de links</title><circle class="cls-1" cx="259.32" cy="241.32" r="195.68"/><path class="cls-2" d="M320.06,167.3a13.45,13.45,0,1,0,13.45,13.45A13.45,13.45,0,0,0,320.06,167.3Z"/><path class="cls-2" d="M260.26,184.55a56.5,56.5,0,1,0,56.51,56.5A56.56,56.56,0,0,0,260.26,184.55Zm0,92.69a36.19,36.19,0,1,1,36.2-36.19A36.23,36.23,0,0,1,260.26,277.24Z"/><path class="cls-2" d="M305.12,355.77h-91.6a69,69,0,0,1-68.92-68.92v-91.6a69,69,0,0,1,68.92-68.92h91.6A69,69,0,0,1,374,195.25v91.6A69,69,0,0,1,305.12,355.77Zm-91.6-207.85a47.38,47.38,0,0,0-47.33,47.33v91.6a47.38,47.38,0,0,0,47.33,47.33h91.6a47.38,47.38,0,0,0,47.33-47.33v-91.6a47.38,47.38,0,0,0-47.33-47.33Z"/></svg>