<svg id="Capa_1" data-name="Capa 1" xmlns="http://www.w3.org/2000/svg" viewBox="0 0 500 500"><defs><style>.cls-1{fill:#0cf;}.cls-2{fill:#fff;}</style></defs><title>iconos de links</title><circle class="cls-1" cx="253.53" cy="263.11" r="200.89"/><path class="cls-2" d="M364.52,194.28a90.29,90.29,0,0,1-22.16,6.32c3.57-.6,8.8-7,10.9-9.66a40.69,40.69,0,0,0,7.35-13.41c.19-.38.34-.86-.05-1.15a1.26,1.26,0,0,0-1.17.1,113.31,113.31,0,0,1-26.27,10.05,1.75,1.75,0,0,1-1.81-.48,21.41,21.41,0,0,0-2.3-2.35,46.5,46.5,0,0,0-12.73-7.8,44.25,44.25,0,0,0-19.51-3.14A46.71,46.71,0,0,0,278.25,178a47.78,47.78,0,0,0-14.94,12.2,45.81,45.81,0,0,0-8.92,17.87,48.29,48.29,0,0,0-.47,18.86c.14,1.06.05,1.2-.91,1.06-36.08-5.37-66-18.28-90.27-45.95-1.05-1.2-1.62-1.2-2.49.09-10.62,15.93-5.47,41.51,7.81,54.09,1.77,1.67,3.59,3.35,5.54,4.88-.71.15-9.54-.81-17.42-4.88-1.05-.67-1.58-.29-1.67.91a27.85,27.85,0,0,0,.28,5.17c2,16.14,13.22,31.07,28.53,36.9a27.69,27.69,0,0,0,5.79,1.77c-3.49.76-7.08,1.31-17.08.53-1.25-.24-1.72.38-1.25,1.58,7.52,20.48,23.75,26.58,35.9,30.05,1.62.29,3.25.29,4.88.67-.09.15-.19.15-.29.29-4,6.14-18,10.72-24.51,13a87.77,87.77,0,0,1-37.23,4.77c-2-.3-2.42-.27-3,0s-.07.81.57,1.33c2.54,1.68,5.12,3.16,7.75,4.6a123.59,123.59,0,0,0,24.89,10c44.72,12.35,95.1,3.27,128.69-30.09,26.37-26.21,35.61-62.34,35.61-98.52,0-1.42,1.68-2.2,2.67-3A86.93,86.93,0,0,0,364.26,198a5.53,5.53,0,0,0,1.16-3.49v-.19C365.42,193.7,365.41,193.88,364.52,194.28Z"/></svg>